<svg width="48" height="48" viewBox="0 0 48 48" fill="none" xmlns="http://www.w3.org/2000/svg">
<rect width="48" height="48" rx="24" fill="url(#paint0_linear_18_1880)"/>
<path fill-rule="evenodd" clip-rule="evenodd" d="M15 17C15 15.8954 15.8954 15 17 15H31C32.1046 15 33 15.8954 33 17V31C33 32.1046 32.1046 33 31 33H17C15.8954 33 15 32.1046 15 31V17ZM17 17H19V18C19 19.6568 20.3432 21 22 21H26C27.6569 21 29 19.6568 29 18V17H31V31H17V17ZM21 18V17H27V18C27 18.5523 26.5523 19 26 19H22C21.4477 19 21 18.5523 21 18ZM20 23C19.4477 23 19 23.4477 19 24C19 24.5523 19.4477 25 20 25H27.9595C28.5118 25 28.9595 24.5523 28.9595 24C28.9595 23.4477 28.5118 23 27.9595 23H20ZM20.0405 27.0665C19.4882 27.0665 19.0405 27.5142 19.0405 28.0665C19.0405 28.6188 19.4882 29.0665 20.0405 29.0665H28C28.5523 29.0665 29 28.6188 29 28.0665C29 27.5142 28.5523 27.0665 28 27.0665H20.0405Z" fill="white"/>
<defs>
<linearGradient id="paint0_linear_18_1880" x1="48" y1="0" x2="0" y2="48" gradientUnits="userSpaceOnUse">
<stop stop-color="#BB65FF"/>
<stop offset="1" stop-color="#4C6FFF"/>
</linearGradient>
</defs>
</svg>
