<svg width="14" height="18" viewBox="0 0 14 18" fill="none" xmlns="http://www.w3.org/2000/svg">
<path d="M7.22222 14.3333V9M4.55556 11.6667H9.88889M13.4446 6.33333H10.9557C9.96008 6.33333 9.46188 6.33331 9.0816 6.13954C8.74709 5.9691 8.47532 5.69715 8.30488 5.36264C8.11111 4.98235 8.11111 4.48454 8.11111 3.48889V1M13.4444 14.1556V6.62267C13.4444 6.18784 13.4441 5.97039 13.395 5.76579C13.3514 5.58439 13.2797 5.411 13.1823 5.25194C13.0723 5.07253 12.919 4.91879 12.6115 4.61132L9.83333 1.83312C9.52587 1.52565 9.37212 1.37193 9.19271 1.26199C9.03365 1.16452 8.86029 1.09267 8.67889 1.04912C8.47429 1 8.2568 1 7.82197 1H3.84462C2.84897 1 2.35077 1 1.97049 1.19377C1.63598 1.36421 1.36421 1.63619 1.19377 1.9707C1 2.35099 1 2.84881 1 3.84446V14.1556C1 15.1512 1 15.649 1.19377 16.0293C1.36421 16.3638 1.63598 16.6358 1.97049 16.8062C2.35077 17 2.84897 17 3.84462 17H10.6002C11.5958 17 12.0933 17 12.4736 16.8062C12.8081 16.6358 13.0804 16.3638 13.2509 16.0293C13.4446 15.649 13.4444 15.1512 13.4444 14.1556Z" stroke="white" stroke-linecap="round" stroke-linejoin="round"/>
</svg>
