<svg width="16" height="17" viewBox="0 0 16 17" fill="none" xmlns="http://www.w3.org/2000/svg">
<mask id="mask0_18_1821" style="mask-type:alpha" maskUnits="userSpaceOnUse" x="0" y="0" width="16" height="17">
<path fill-rule="evenodd" clip-rule="evenodd" d="M2 13.6025V7.10246H3V13.6025C3 13.8786 3.22386 14.1025 3.5 14.1025H12.5C12.7761 14.1025 13 13.8786 13 13.6025V7.10246H14V13.6025C14 14.4309 13.3284 15.1025 12.5 15.1025H3.5C2.67157 15.1025 2 14.4309 2 13.6025Z" fill="black"/>
<path fill-rule="evenodd" clip-rule="evenodd" d="M13 2.60246V6.10246L11 4.10246V2.60246C11 2.32632 11.2239 2.10246 11.5 2.10246H12.5C12.7761 2.10246 13 2.32632 13 2.60246Z" fill="black"/>
<path fill-rule="evenodd" clip-rule="evenodd" d="M7.29289 1.60246C7.68342 1.21194 8.31658 1.21194 8.70711 1.60246L15.3536 8.24891C15.5488 8.44417 15.5488 8.76076 15.3536 8.95602C15.1583 9.15128 14.8417 9.15128 14.6464 8.95602L8 2.30957L1.35355 8.95602C1.15829 9.15128 0.841709 9.15128 0.646447 8.95602C0.451184 8.76076 0.451184 8.44417 0.646447 8.24891L7.29289 1.60246Z" fill="black"/>
</mask>
<g mask="url(#mask0_18_1821)">
<rect y="0.102539" width="16" height="16" fill="white"/>
</g>
</svg>
