<svg width="16" height="17" viewBox="0 0 16 17" fill="none" xmlns="http://www.w3.org/2000/svg">
<mask id="mask0_20_69" style="mask-type:alpha" maskUnits="userSpaceOnUse" x="0" y="0" width="16" height="17">
<path fill-rule="evenodd" clip-rule="evenodd" d="M6 12.6025C6 12.8787 6.22386 13.1025 6.5 13.1025L14.5 13.1025C14.7761 13.1025 15 12.8787 15 12.6025L15 3.60254C15 3.3264 14.7761 3.10254 14.5 3.10254L6.5 3.10254C6.22386 3.10254 6 3.3264 6 3.60254L6 5.60254C6 5.87868 5.77614 6.10254 5.5 6.10254C5.22386 6.10254 5 5.87868 5 5.60254L5 3.60254C5 2.77411 5.67157 2.10254 6.5 2.10254L14.5 2.10254C15.3284 2.10254 16 2.77411 16 3.60254L16 12.6025C16 13.431 15.3284 14.1025 14.5 14.1025L6.5 14.1025C5.67157 14.1025 5 13.431 5 12.6025L5 10.6025C5 10.3264 5.22386 10.1025 5.5 10.1025C5.77614 10.1025 6 10.3264 6 10.6025L6 12.6025Z" fill="black"/>
<path fill-rule="evenodd" clip-rule="evenodd" d="M0.146446 8.45609C-0.0488157 8.26083 -0.0488157 7.94425 0.146446 7.74899L3.14645 4.74899C3.34171 4.55372 3.65829 4.55372 3.85355 4.74899C4.04882 4.94425 4.04882 5.26083 3.85355 5.45609L1.70711 7.60254L10.5 7.60254C10.7761 7.60254 11 7.8264 11 8.10254C11 8.37868 10.7761 8.60254 10.5 8.60254L1.70711 8.60254L3.85355 10.749C4.04882 10.9442 4.04882 11.2608 3.85355 11.4561C3.65829 11.6514 3.34171 11.6514 3.14645 11.4561L0.146446 8.45609Z" fill="black"/>
</mask>
<g mask="url(#mask0_20_69)">
<rect y="0.102539" width="16" height="16" fill="white"/>
</g>
</svg>
