<svg width="16" height="17" viewBox="0 0 16 17" fill="none" xmlns="http://www.w3.org/2000/svg">
<mask id="mask0_18_3361" style="mask-type:alpha" maskUnits="userSpaceOnUse" x="0" y="0" width="16" height="17">
<path fill-rule="evenodd" clip-rule="evenodd" d="M10.6667 4.10254C10.6667 5.5753 9.47276 6.76921 8 6.76921C6.52724 6.76921 5.33333 5.5753 5.33333 4.10254C5.33333 2.62978 6.52724 1.43587 8 1.43587C9.47276 1.43587 10.6667 2.62978 10.6667 4.10254ZM8 8.10254C10.2091 8.10254 12 6.31168 12 4.10254C12 1.8934 10.2091 0.102539 8 0.102539C5.79086 0.102539 4 1.8934 4 4.10254C4 6.31168 5.79086 8.10254 8 8.10254ZM16 14.7692C16 16.1025 14.6667 16.1025 14.6667 16.1025H1.33333C1.33333 16.1025 0 16.1025 0 14.7692C0 13.4359 1.33333 9.43587 8 9.43587C14.6667 9.43587 16 13.4359 16 14.7692ZM14.6663 14.7649C14.6644 14.4358 14.4613 13.4501 13.5569 12.5457C12.6872 11.676 11.0518 10.7695 7.99966 10.7695C4.94752 10.7695 3.31215 11.676 2.44247 12.5457C1.53801 13.4501 1.33491 14.4358 1.33301 14.7649H14.6663Z" fill="black"/>
</mask>
<g mask="url(#mask0_18_3361)">
<rect y="0.102539" width="16" height="16" fill="white"/>
</g>
</svg>
